<?xml version="1.0" encoding="utf-8"?>
<!-- Generator: unDraw.co, Storyset, or similar free SVG illustration -->
<svg width="400" height="300" viewBox="0 0 400 300" fill="none" xmlns="http://www.w3.org/2000/svg">
  <rect width="400" height="300" rx="32" fill="#E3F0FF"/>
  <ellipse cx="120" cy="220" rx="60" ry="18" fill="#B3CFFF"/>
  <ellipse cx="280" cy="220" rx="60" ry="18" fill="#B3CFFF"/>
  <rect x="70" y="120" width="100" height="60" rx="10" fill="#233D7B"/>
  <rect x="230" y="120" width="100" height="60" rx="10" fill="#233D7B"/>
  <rect x="90" y="80" width="60" height="40" rx="8" fill="#FF7A00"/>
  <rect x="250" y="80" width="60" height="40" rx="8" fill="#FF7A00"/>
  <circle cx="120" cy="70" r="18" fill="#FFD6A0"/>
  <circle cx="280" cy="70" r="18" fill="#FFD6A0"/>
  <rect x="110" y="88" width="20" height="20" rx="6" fill="#7E2B03"/>
  <rect x="270" y="88" width="20" height="20" rx="6" fill="#7E2B03"/>
  <rect x="0" y="250" width="400" height="50" fill="#B3CFFF"/>
  <ellipse cx="200" cy="270" rx="180" ry="20" fill="#E3F0FF"/>
  <!-- Crowd silhouettes -->
  <ellipse cx="60" cy="270" rx="24" ry="10" fill="#A0BFE8"/>
  <ellipse cx="120" cy="275" rx="20" ry="8" fill="#A0BFE8"/>
  <ellipse cx="200" cy="272" rx="30" ry="12" fill="#A0BFE8"/>
  <ellipse cx="280" cy="275" rx="20" ry="8" fill="#A0BFE8"/>
  <ellipse cx="340" cy="270" rx="24" ry="10" fill="#A0BFE8"/>
</svg> 